<svg width="518" height="420" viewBox="0 0 518 420" fill="none" xmlns="http://www.w3.org/2000/svg">
<path d="M148.048 229.232C146.794 228.432 145.554 228.067 145.507 226.172C153.736 222.98 162.531 221.246 171.11 218.852C203.484 209.818 235.926 201.028 268.292 191.966C272.161 190.882 274.677 191.354 277.385 194.5C285.52 203.953 294.374 212.73 304.22 220.598C300.19 215.486 296.215 210.33 292.12 205.271C281.744 192.45 271.248 179.726 260.954 166.841C258.496 163.764 256.33 162.75 252.565 164.846C247.631 167.594 242.371 169.772 237.192 172.061C230.594 174.976 224.473 173.038 221.865 167.348C219.102 161.323 221.547 155.394 228.128 152.182C232.319 150.137 236.52 148.115 240.705 146.06C241.141 145.846 241.498 145.475 242.624 144.622C238.384 139.329 234.177 134.072 229.965 128.818C213.814 108.673 197.462 88.6828 182.473 67.6374C180.511 64.8833 178.394 62.1318 177.898 58.2757C181.45 57.7029 183.468 59.6546 185.547 61.0893C204.225 73.9737 221.407 88.7731 238.994 103.049C270.807 128.872 301.616 155.94 334.766 180.099C336.719 181.522 338.737 182.855 341.566 184.812C339.868 180.31 336.6 178.077 335.656 174.676C336.506 172.912 338.098 172.631 339.454 172.118C366.716 161.806 394.189 152.159 422.758 146.022C437.324 142.893 451.804 142.621 466.111 147.475C467.669 148.004 469.369 148.187 470.61 149.544C469.647 151.834 467.29 151.552 465.548 152.157C460.008 154.078 454.689 156.414 449.844 159.721C448.106 160.906 446.817 162.628 447.883 164.827C448.856 166.836 450.715 166.61 452.669 166.237C464.915 163.897 477.2 161.755 489.425 159.311C492.297 158.737 494.582 159.172 496.954 160.716C503.258 164.819 509.456 169.029 514.008 175.179C518.73 181.557 518.384 185.892 512.535 191.381C507.988 195.649 502.553 198.574 496.883 201.059C472.081 211.928 445.886 218.443 419.953 225.825C374.092 238.881 327.168 246.666 280.174 253.951C259.484 257.159 238.692 255.294 218.098 251.37C193.976 246.774 170.308 240.865 148.048 229.232ZM474.772 177.761C473.747 175.982 472.385 176.055 471.128 177.341C469.998 178.497 470.773 179.839 471.249 181.067C471.66 182.13 472.415 182.686 473.577 182.32C475.734 181.64 475.83 180.167 474.772 177.761ZM434.4 192.237C435.545 190.099 435.348 188.063 433.233 186.835C432.272 186.276 430.827 187.1 430.647 188.396C430.327 190.697 430.629 192.797 434.4 192.237ZM423.115 194.966C425.539 193.714 425.166 191.766 424.029 190.019C423.328 188.94 421.617 188.997 421.07 190.065C420.109 191.938 419.37 194.175 423.115 194.966ZM404.517 198.868C404.705 196.899 405.237 194.506 402.139 194.69C400.161 194.808 400.269 196.738 400.446 198.217C400.793 201.119 402.312 200.881 404.517 198.868ZM464.711 184.227C465.513 181.952 465.535 179.891 462.611 179.373C461.299 179.141 460.372 180.115 460.563 181.54C460.838 183.583 461.177 185.744 464.711 184.227ZM442.627 184.381C439.313 185.131 440.304 187.29 441.157 189.229C441.648 190.346 442.908 190.308 443.643 189.652C445.627 187.882 445.389 186.066 442.627 184.381ZM410.435 194.666C410.522 196.32 410.977 197.692 413.016 197.531C414.205 197.437 414.728 196.584 414.741 195.474C414.755 194.329 414.991 192.878 413.826 192.303C412.236 191.518 410.938 192.127 410.435 194.666ZM394.653 199.727C394.469 198.128 394.022 196.42 391.993 197.298C389.147 198.529 390.56 200.749 391.055 202.951C393.027 202.877 394.501 202.598 394.653 199.727ZM361.517 205.098C358.964 206.824 360.008 208.725 361.509 210.319C362.178 211.029 363.678 210.653 364.057 209.715C364.902 207.627 365.166 205.501 361.517 205.098ZM384.486 204.129C384.476 202.342 384.844 200.071 382.321 199.94C380.378 199.839 380.159 201.683 380.398 203.261C380.791 205.857 382.135 206.245 384.486 204.129ZM454.871 185.243C454.692 183.841 455.082 182.086 453.06 181.709C451.987 181.509 451.101 182.122 450.772 183.149C450.338 184.504 450.771 185.893 451.687 186.806C452.975 188.087 454.035 187.285 454.871 185.243ZM373.533 203.068C371.033 201.72 370.289 202.99 370.378 205.267C370.435 206.725 370.488 208.481 372.74 207.894C375.448 207.189 374.479 205.328 373.533 203.068Z" fill="white"/>
<path d="M64.4696 261.448C68.7697 258.45 69.9635 254.745 68.966 249.956C66.9667 240.359 61.5677 232.555 55.9895 224.887C41.2182 204.584 23.2316 187.227 5.20535 169.912C3.36725 168.147 0.821137 166.867 0 163.42C7.14264 162.064 13.9235 162.509 20.6972 164.282C41.7535 169.79 59.5256 181.603 76.9059 193.982C94.2679 206.347 111.483 218.943 128.358 231.963C149.265 248.093 173.157 256.578 198.831 260.587C220.732 264.007 242.77 265.898 264.974 263.924C265.925 263.839 266.899 264.025 268.068 264.098C267.7 266.888 265.393 266.625 263.929 267.09C244.397 273.301 224.35 277.379 204.275 281.33C165.451 288.97 126.356 295.012 87.2687 301.096C75.6098 302.911 63.9117 304.474 52.2271 306.122C42.6803 307.468 34.1378 302.046 31.8194 293.22C29.2677 283.504 34.9402 272.411 44.5276 268.979C51.1069 266.625 57.8471 264.72 64.4696 261.448Z" fill="white"/>
<path d="M356.244 46.9003C322.718 28.34 286.993 21.1027 249.44 24.5317C203.919 28.6882 165.031 47.659 133.054 80.3875C107.34 106.707 91.2416 138.179 83.7834 174.143C83.0847 177.512 83.2587 181.079 81.2868 184.931C74.6601 180.563 68.1283 176.393 61.7687 171.975C60.0495 170.781 60.7986 168.601 61.1426 166.815C76.5008 87.1264 142.534 20.5227 222.254 4.69618C288.884 -8.53165 348.847 6.14306 401.402 49.2503C427.626 70.7603 446.898 97.7348 460.058 129.025C460.703 130.557 461.231 132.142 461.75 133.723C461.896 134.17 461.817 134.691 461.899 136.308C453.778 134.044 445.725 134.247 437.692 133.952C435.406 133.867 434.966 131.225 434.132 129.492C421.104 102.404 402.567 79.8157 378.718 61.5732C371.696 56.2017 364.277 51.4097 356.244 46.9003Z" fill="white"/>
<path d="M437.36 282.33C444.327 265.779 448.987 249.005 450.84 231.493C451.055 229.464 451.276 227.383 453.616 226.641C460.557 224.44 467.519 222.305 475.627 219.785C474.114 253.127 465.476 283.469 449.495 311.611C420.619 362.463 377.919 396.284 321.539 411.704C217.621 440.126 120.71 384.069 84.2169 311.836C89.5425 309.659 95.3738 310.281 100.691 308.688C106.605 306.917 109.706 309.214 113.155 314.155C143.312 357.354 184.27 384.067 236.398 392.785C320.511 406.853 402.527 361.732 437.36 282.33Z" fill="white"/>
</svg>
